<svg id="Layer_1" data-name="Layer 1" xmlns="http://www.w3.org/2000/svg" viewBox="0 0 359.9 185.4"><defs><style>.cls-1{fill:#2f2f2f;}</style></defs><title>CALS-logo1</title><path class="cls-1" d="M222.3,45.8a52.65,52.65,0,0,0-3.4-14.3c-.1-.1-.2-.6-.3-.7a27.49,27.49,0,0,0-5.1-8,17.86,17.86,0,0,0-12.9-6.2h-.1a6.82,6.82,0,0,0-4.8-3.4,5.89,5.89,0,0,0-11.4,0,7,7,0,0,0-4.9,3.4h-.1a17.33,17.33,0,0,0-12.9,6.2,27.49,27.49,0,0,0-5.1,8,3.63,3.63,0,0,1-.3.7,47.67,47.67,0,0,0-3.4,14.3c-2.7,26.7,9.3,59.5,30.9,64.5.3.5,1.1,1.5,1.5,1.5s1.2-1,1.5-1.5C213,105.3,225,72.5,222.3,45.8ZM189.9,9.9a4.54,4.54,0,0,1,4.6,3.2,2.2,2.2,0,0,0-.8.1l-.7.2a5.45,5.45,0,0,0-3,2.6l-.1.1a.1.1,0,0,1-.1-.1,5.65,5.65,0,0,0-3.1-2.6l-.7-.2a2,2,0,0,0-.8-.1,4.72,4.72,0,0,1,4.7-3.2ZM187.8,15a4.76,4.76,0,0,1,1.8,2.6q.3.75.6,0a5.38,5.38,0,0,1,2.1-2.8,4.91,4.91,0,0,1,6.9,2,8,8,0,0,0-1.5.3,2.35,2.35,0,0,1-.8.2h-.2a8.06,8.06,0,0,0-2.7,1.6,11,11,0,0,0-3.2,7.1c-.8,8.6,9.1,7.3,9.6,7.2,1.3,0,2.2-2,2.2-4.7s-1-4.7-2.2-4.7c-.8,0-2.1.6-2.2,3-.1,1.7.7,3.9,1.8,4.1.6.1,1.1-.9,1.2-1.9s.1-2.2-.7-2.4a.38.38,0,0,0-.5.3c-.1.2.5.6.5,1.6,0,1.5-1.5.7-1.3-1.6.2-2.1,1.2-1.9,1.3-1.9.6,0,1.5,1.2,1.5,3.6,0,2.1-1,4.3-2.9,3.1-1.6-1.2-2.2-3.9-1.8-6,.2-1,1-3.6,3.7-3.6,3.8,0,7.3,2,10.2,5.6v.1c-.3.9-2.4,5-8.7,8.7a9,9,0,0,0-4-1.1,12,12,0,0,0-3.8.1l-3.8.9a3.79,3.79,0,0,1-1.5,0l-4.1-1a11.25,11.25,0,0,0-4.1-.1,12.08,12.08,0,0,0-3.6,1.1l-.3-.2c-6.3-3.7-8.3-7.5-8.6-8.5,2.9-3.8,6.4-5.8,10.3-5.8,2.7,0,3.5,2.6,3.7,3.6.4,2.1-.2,4.8-1.8,6-1.9,1.2-2.9-1.1-2.9-3.1,0-2.3.9-3.6,1.5-3.6,0,0,1.1-.1,1.3,1.9.2,2.3-1.3,3.1-1.3,1.6a3.52,3.52,0,0,1,.5-1.6c-.1-.2-.3-.4-.5-.3-.8.2-.8,1.5-.7,2.4s.7,2,1.2,1.9c1.1-.1,1.9-2.4,1.8-4.1-.1-2.4-1.5-3-2.2-3-1.3,0-2.2,2-2.2,4.7s1,4.7,2.2,4.7c.5,0,10.4,1.4,9.6-7.2a11.07,11.07,0,0,0-3.6-7.2,8.54,8.54,0,0,0-2.8-1.6,19.45,19.45,0,0,0-2-.5C181.8,14.3,185,13.2,187.8,15ZM169.1,50.5a18.41,18.41,0,0,1-6.8-2c.5-8.6,2.7-15.4,5.9-19.9.6,1.5,3,5.1,8.7,8.5-4.6,3.3-7.1,8.9-7.8,13.4Zm8.4-12.3a10.87,10.87,0,0,1,5.2-1.4c3.2-.2,5.5,1,7.1,1.1h.1c1.6,0,4.1-1.3,7.4-1.1a10.87,10.87,0,0,1,5.2,1.4c6.6,4.2,7.5,13.9,7.7,17.1A50.8,50.8,0,0,1,206,77.7c-4.6,10-10.1,16.9-15.5,19.3l-.4.2-.4-.2c-5.4-2.4-10.9-9.3-15.5-19.3A52.35,52.35,0,0,1,170,55.3c-.1-3.2.9-12.9,7.5-17.1ZM169,51.1c-.2,1.7-.3,3-.4,3.9a29.44,29.44,0,0,0,0,4.2v1a56.27,56.27,0,0,0,1.1,8.1l.1.3a57.49,57.49,0,0,0,3,9.4q1.5,3.3,3,6a13.75,13.75,0,0,1-6.1,2.8,77.44,77.44,0,0,1-7.6-37.6,20,20,0,0,0,6.9,1.9Zm7.2,33.5c3.6,6.3,7.2,10,10,12a12.71,12.71,0,0,1-4.2,5.1c-4.7-3.2-8.7-8.2-11.9-14.3a14.45,14.45,0,0,0,6.1-2.8Zm10.5,12.3a21.34,21.34,0,0,0,3.2,1.8,12.16,12.16,0,0,0,3.2-1.7.1.1,0,0,0,.1-.1,13.78,13.78,0,0,0,4.1,5.2,19,19,0,0,1-4.3,2.1V104c-.3-1.6-2.4-1.9-3.1-1.9s-2.8.3-3.1,1.9v.2a16.52,16.52,0,0,1-4.2-2.1A14.82,14.82,0,0,0,186.7,96.9Zm7-.4c2.7-2,6.3-5.7,9.9-12a13.2,13.2,0,0,0,6,2.8c-3.1,6.1-7.1,11.1-11.8,14.3a14.43,14.43,0,0,1-4.1-5.1ZM204,83.9c1-1.8,2-3.7,3-5.9a46.62,46.62,0,0,0,3-9.4l.1-.3a45,45,0,0,0,1.1-8.1v-1a29.44,29.44,0,0,0,0-4.2,22.18,22.18,0,0,0-.4-3.9,21,21,0,0,0,6.8-1.9c.4,12.6-2.3,26.7-7.7,37.5a12.35,12.35,0,0,1-5.9-2.8Zm6.7-33.4c-.7-4.5-3.1-10.1-7.6-13.4,5.8-3.4,8.1-7.1,8.6-8.5,3.3,4.5,5.5,11.4,5.9,20A21.1,21.1,0,0,1,210.7,50.5ZM179.4,105l-.5-.4c-5-3.6-9.4-9.1-12.9-16.2l-.3-.6a25.57,25.57,0,0,1-1.1-2.4,81.13,81.13,0,0,1-6.2-37.8l.1-.6c0-.3.1-.7.1-1,.9-8.5,3.2-15.4,6.7-20.2l.4-.5c3.6-4.8,8.4-7.4,13.9-7.4a9.08,9.08,0,0,1,4.6,1.2,9.62,9.62,0,0,1,3.9,7.1c.5,5.3-5,6.2-6,6.2-.2,0-.2-.2.3-.7a7.55,7.55,0,0,0,1.2-6c-.5-2.4-2.2-4.4-4.7-4.4-4.1,0-7.8,2.1-10.7,5.9l-.4.5c-3.3,4.6-5.6,11.5-6.3,19.8v.7a2.2,2.2,0,0,1-.1.8,77.77,77.77,0,0,0,7.4,37.6l.3.6c3.1,6.2,7.2,11.5,11.9,14.9l.6.4a22.09,22.09,0,0,0,5.3,2.7,7.46,7.46,0,0,0,.8,3.7,31.52,31.52,0,0,1-8.3-3.9Zm10.9,5.3s-.2.3-.4.3a.45.45,0,0,1-.4-.3,7.86,7.86,0,0,1-1.8-6.1c.1-.8,1.5-1.1,2.2-1.1s2,.3,2.2,1.1A8,8,0,0,1,190.3,110.3Zm25-24.9c-.4.8-.7,1.6-1.1,2.4l-.3.6c-3.5,7.1-7.9,12.5-12.9,16.2l-.5.4a24.88,24.88,0,0,1-8.1,3.8,8.41,8.41,0,0,0,.8-3.7,22.46,22.46,0,0,0,5.3-2.8l.6-.4c4.7-3.4,8.8-8.6,11.9-14.9l.3-.6a79,79,0,0,0,7.4-37.6,2.2,2.2,0,0,0-.1-.8v-.7c-.7-8.3-3-15.2-6.3-19.8l-.4-.5c-2.9-3.8-6.5-5.9-10.7-5.9-2.5,0-4.2,1.9-4.7,4.4a7.88,7.88,0,0,0,1.2,6c.6.7.3.9.2.9-1.6,0-6.4-1-5.9-6.3a9.26,9.26,0,0,1,3.9-7.1,9.08,9.08,0,0,1,4.6-1.2c5.5,0,10.3,2.7,13.9,7.4l.4.5c3.5,4.9,5.8,11.8,6.7,20.2,0,.3.1.7.1,1l.1.6A83.85,83.85,0,0,1,215.3,85.4Z" transform="translate(-7.8 -8.8)"/><path class="cls-1" d="M199.7,45.9v2.2l.4-.1h.2a1.43,1.43,0,0,1,1,.3c.3.3.3.7.3,1.3,0,0-4.4,19.1-5.2,22.7-1-4.6-6.2-29.7-6.2-29.7v-.1h-1v.1s-3.8,24.4-4.6,29.3c-1-4.2-5.2-22.4-5.2-22.4v-.3a1.25,1.25,0,0,1,.4-1.1,1.33,1.33,0,0,1,.9-.3l.4.1V45.8h-7.4V48l.3.1a1.19,1.19,0,0,1,1.1,1s8.6,37,9,38.6v.1h1.3v-.1c0-.3,3.5-23.2,4.2-27.5.8,4.3,5.3,27.3,5.3,27.5v.1h1.2l8.6-38.7a1.17,1.17,0,0,1,1.2-.9h.5V46h-6.7Z" transform="translate(-7.8 -8.8)"/><path class="cls-1" d="M135.7,136.5c.2,0,.3.1.5.2l1.3,1.4a7.84,7.84,0,0,1-3.3,2.4,10.78,10.78,0,0,1-4.6.9,11.76,11.76,0,0,1-4.3-.8,8.56,8.56,0,0,1-3.3-2.3,11.26,11.26,0,0,1-2.1-3.5,13.88,13.88,0,0,1,.1-9,10.43,10.43,0,0,1,2.2-3.5,10.21,10.21,0,0,1,3.4-2.3,12.17,12.17,0,0,1,4.3-.8,10.7,10.7,0,0,1,4.1.8,9.75,9.75,0,0,1,3.1,2l-1.1,1.5-.3.3c-.1.1-.2.1-.4.1a1.33,1.33,0,0,1-.7-.3,8.79,8.79,0,0,0-1-.6,4.87,4.87,0,0,0-1.6-.6,7.55,7.55,0,0,0-2.3-.3,7.31,7.31,0,0,0-3,.6,6.34,6.34,0,0,0-2.3,1.6,6.14,6.14,0,0,0-1.5,2.6,11.41,11.41,0,0,0,.1,7,9.34,9.34,0,0,0,1.5,2.6,6,6,0,0,0,2.3,1.6,7.17,7.17,0,0,0,2.9.6,9.15,9.15,0,0,0,1.7-.1c.5-.1,1-.2,1.4-.3a6.72,6.72,0,0,0,1.2-.6,4.36,4.36,0,0,0,1.1-.9c.1-.1.2-.1.3-.2a.37.37,0,0,1,.3-.1Zm10.8-11a7.79,7.79,0,0,1,3.1.6,6.34,6.34,0,0,1,2.3,1.6,8.74,8.74,0,0,1,1.5,2.5,11.14,11.14,0,0,1,0,6.6,5.79,5.79,0,0,1-1.5,2.5,6.34,6.34,0,0,1-2.3,1.6,7.45,7.45,0,0,1-3.1.6,7.79,7.79,0,0,1-3.1-.6,6.34,6.34,0,0,1-2.3-1.6,8.74,8.74,0,0,1-1.5-2.5,11.14,11.14,0,0,1,0-6.6,5.79,5.79,0,0,1,1.5-2.5,6.34,6.34,0,0,1,2.3-1.6A7.79,7.79,0,0,1,146.5,125.5Zm0,13.5a3.87,3.87,0,0,0,3.3-1.5,7.11,7.11,0,0,0,1.1-4.1,7.23,7.23,0,0,0-1.1-4.2,4.38,4.38,0,0,0-6.6,0,7.23,7.23,0,0,0-1.1,4.2,6.68,6.68,0,0,0,1.1,4.1A3.53,3.53,0,0,0,146.5,139Zm13.6-20.3v22.4h-3V118.7Zm7,0v22.4h-3V118.7Zm16.7,20.2a6.89,6.89,0,0,1-1.3,1.1,10.93,10.93,0,0,1-1.5.8,8.47,8.47,0,0,1-1.7.4,9.7,9.7,0,0,1-1.7.1,9.93,9.93,0,0,1-3-.5,7.76,7.76,0,0,1-2.4-1.6,6.14,6.14,0,0,1-1.5-2.6,9.89,9.89,0,0,1-.1-6.5,7.22,7.22,0,0,1,1.4-2.4,6.34,6.34,0,0,1,2.3-1.6,7.31,7.31,0,0,1,3-.6,7.51,7.51,0,0,1,2.6.5,7.43,7.43,0,0,1,2.1,1.3,6.92,6.92,0,0,1,1.4,2.2,8.81,8.81,0,0,1,.5,2.9,1.44,1.44,0,0,1-.2.9c-.1.2-.3.2-.6.2H173a8.6,8.6,0,0,0,.4,2.4,4,4,0,0,0,1,1.7,3.07,3.07,0,0,0,1.5,1,5.82,5.82,0,0,0,1.9.3,7.93,7.93,0,0,0,1.7-.2,7.26,7.26,0,0,0,1.2-.5c.3-.2.6-.3.9-.5a.73.73,0,0,1,.6-.2.86.86,0,0,1,.6.3l1,1.1Zm-2.4-7.2a4.15,4.15,0,0,0-.3-1.6,5.39,5.39,0,0,0-.7-1.3,3.78,3.78,0,0,0-1.2-.9,4.15,4.15,0,0,0-1.6-.3,4,4,0,0,0-2.9,1.1,5.27,5.27,0,0,0-1.4,3Zm18.8-5.4v1.1c0,.4-.2.6-.7.7l-1.7.2a2.93,2.93,0,0,1,.3,1,3.75,3.75,0,0,1,.1,1.1,4.92,4.92,0,0,1-.4,2.1,6.1,6.1,0,0,1-1.2,1.6,5.24,5.24,0,0,1-1.8,1,8.52,8.52,0,0,1-2.3.3,12.31,12.31,0,0,1-2-.2,4.35,4.35,0,0,0-.7.6.73.73,0,0,0-.2.6.81.81,0,0,0,.4.8,3.37,3.37,0,0,0,1.2.4,8.62,8.62,0,0,0,1.7.1c.6,0,1.3.1,1.9.1a12.25,12.25,0,0,1,1.9.2,4.92,4.92,0,0,1,1.7.6,2.89,2.89,0,0,1,1.6,2.9,4.14,4.14,0,0,1-.5,1.9,5.52,5.52,0,0,1-1.4,1.7,7.14,7.14,0,0,1-2.3,1.2,9.72,9.72,0,0,1-3.1.4,13.86,13.86,0,0,1-3-.3,6.67,6.67,0,0,1-2.1-.9,4,4,0,0,1-1.3-1.3,2.82,2.82,0,0,1-.4-1.5,2.64,2.64,0,0,1,.7-1.9,5.16,5.16,0,0,1,1.9-1.2,4.44,4.44,0,0,1-1.1-.8,2,2,0,0,1-.4-1.4,1.7,1.7,0,0,1,.1-.7,2.51,2.51,0,0,1,.4-.7c.2-.2.4-.5.6-.7a3.49,3.49,0,0,1,.9-.6,4.24,4.24,0,0,1-1.8-1.7,4.9,4.9,0,0,1-.7-2.5,4.21,4.21,0,0,1,.4-2,6.1,6.1,0,0,1,1.2-1.6,4.89,4.89,0,0,1,1.9-1,8.75,8.75,0,0,1,2.4-.3,7.12,7.12,0,0,1,3.4.8h4.4Zm-3,15.6a1.22,1.22,0,0,0-.3-.9,2.18,2.18,0,0,0-.8-.5c-.3-.1-.8-.2-1.2-.3a7.57,7.57,0,0,0-1.5-.1c-.5,0-1-.1-1.6-.1s-1.1-.1-1.5-.1a4.49,4.49,0,0,0-1.3,1,2.11,2.11,0,0,0-.5,1.3,1.61,1.61,0,0,0,.3.9,1.85,1.85,0,0,0,.8.7,3.92,3.92,0,0,0,1.3.5,9.13,9.13,0,0,0,3.8,0,4.57,4.57,0,0,0,1.4-.5,2.36,2.36,0,0,0,.9-.8,3.59,3.59,0,0,0,.2-1.1Zm-4.8-8.5a5.9,5.9,0,0,0,1.4-.2,2.07,2.07,0,0,0,1-.6,2.36,2.36,0,0,0,.6-.9,5,5,0,0,0,.2-1.2,2.86,2.86,0,0,0-.8-2.1,3.29,3.29,0,0,0-2.4-.8,3.65,3.65,0,0,0-2.4.8,2.86,2.86,0,0,0-.8,2.1,5,5,0,0,0,.2,1.2,1.46,1.46,0,0,0,.6.9,2.07,2.07,0,0,0,1,.6A3.4,3.4,0,0,0,192.4,133.4Zm22.5,5.5a6.89,6.89,0,0,1-1.3,1.1,10.93,10.93,0,0,1-1.5.8,8.47,8.47,0,0,1-1.7.4,9.7,9.7,0,0,1-1.7.1,9.93,9.93,0,0,1-3-.5,7.76,7.76,0,0,1-2.4-1.6,6.14,6.14,0,0,1-1.5-2.6,12.17,12.17,0,0,1-.6-3.5,9.43,9.43,0,0,1,.5-3,7.22,7.22,0,0,1,1.4-2.4,6.34,6.34,0,0,1,2.3-1.6,7.31,7.31,0,0,1,3-.6,7.51,7.51,0,0,1,2.6.5,7.43,7.43,0,0,1,2.1,1.3,6.92,6.92,0,0,1,1.4,2.2,8.81,8.81,0,0,1,.5,2.9,1.44,1.44,0,0,1-.2.9c-.1.2-.3.2-.6.2H204.1a8.6,8.6,0,0,0,.4,2.4,4,4,0,0,0,1,1.7,3.07,3.07,0,0,0,1.5,1,5.82,5.82,0,0,0,1.9.3,7.93,7.93,0,0,0,1.7-.2,7.26,7.26,0,0,0,1.2-.5c.3-.2.6-.3.9-.5a.73.73,0,0,1,.6-.2.86.86,0,0,1,.6.3l1,1.1Zm-2.4-7.2a4.15,4.15,0,0,0-.3-1.6,5.39,5.39,0,0,0-.7-1.3,3.78,3.78,0,0,0-1.2-.9,4.15,4.15,0,0,0-1.6-.3,4,4,0,0,0-2.9,1.1,5.27,5.27,0,0,0-1.4,3Zm20.1-6.2a7.79,7.79,0,0,1,3.1.6,6.34,6.34,0,0,1,2.3,1.6,8.74,8.74,0,0,1,1.5,2.5,11.14,11.14,0,0,1,0,6.6,5.79,5.79,0,0,1-1.5,2.5,6.34,6.34,0,0,1-2.3,1.6,7.45,7.45,0,0,1-3.1.6,7.79,7.79,0,0,1-3.1-.6,6.34,6.34,0,0,1-2.3-1.6,8.74,8.74,0,0,1-1.5-2.5,11.14,11.14,0,0,1,0-6.6,5.79,5.79,0,0,1,1.5-2.5,6.34,6.34,0,0,1,2.3-1.6A7.45,7.45,0,0,1,232.6,125.5Zm0,13.5a3.87,3.87,0,0,0,3.3-1.5,7.11,7.11,0,0,0,1.1-4.1,7.23,7.23,0,0,0-1.1-4.2,4.38,4.38,0,0,0-6.6,0,7.23,7.23,0,0,0-1.1,4.2,6.68,6.68,0,0,0,1.1,4.1A3.53,3.53,0,0,0,232.6,139Zm11.1,2.1v-13l-1.6-.2c-.2-.1-.4-.1-.6-.3a.76.76,0,0,1-.2-.5V126h2.4v-1.4a6.05,6.05,0,0,1,.4-2.4,5.44,5.44,0,0,1,1.1-1.8,5,5,0,0,1,1.7-1.1,7.8,7.8,0,0,1,2.2-.4,5.82,5.82,0,0,1,1.9.3l-.1,1.5c0,.1-.1.2-.1.3a.37.37,0,0,1-.3.1.6.6,0,0,0-.4.1h-.5a3.73,3.73,0,0,0-1.2.2,2.4,2.4,0,0,0-1.6,1.6,7,7,0,0,0-.2,1.6v1.3h4.3v2.2h-4.2v13ZM28.4,171.5H25.9a1.45,1.45,0,0,1-.7-.2,1,1,0,0,1-.4-.5l-1.9-5.1H13.3l-1.9,5.1a1,1,0,0,1-.4.5.84.84,0,0,1-.7.2H7.8l8.7-21.8h3.3ZM22,163.4l-3.2-8.5a19.38,19.38,0,0,1-.7-2.2l-.3,1.2c-.1.4-.2.7-.3,1l-3.2,8.4H22Zm22.3-6.8v1.1c0,.4-.2.6-.7.7l-1.7.2a2.93,2.93,0,0,1,.3,1,3.75,3.75,0,0,1,.1,1.1,4.92,4.92,0,0,1-.4,2.1,6.1,6.1,0,0,1-1.2,1.6,5.24,5.24,0,0,1-1.8,1,8.52,8.52,0,0,1-2.3.3,12.31,12.31,0,0,1-2-.2,4.35,4.35,0,0,0-.7.6.73.73,0,0,0-.2.6.81.81,0,0,0,.4.8,3.37,3.37,0,0,0,1.2.4,8.62,8.62,0,0,0,1.7.1c.6,0,1.3.1,1.9.1a12.25,12.25,0,0,1,1.9.2,4.92,4.92,0,0,1,1.7.6,2.89,2.89,0,0,1,1.6,2.9,4.14,4.14,0,0,1-.5,1.9,5.52,5.52,0,0,1-1.4,1.7,7.14,7.14,0,0,1-2.3,1.2,9.72,9.72,0,0,1-3.1.4,13.86,13.86,0,0,1-3-.3,5.79,5.79,0,0,1-2.1-.9,4,4,0,0,1-1.3-1.3A2.82,2.82,0,0,1,30,173a2.64,2.64,0,0,1,.7-1.9,5.16,5.16,0,0,1,1.9-1.2,4.44,4.44,0,0,1-1.1-.8,2,2,0,0,1-.4-1.4,1.7,1.7,0,0,1,.1-.7,2.51,2.51,0,0,1,.4-.7c.2-.2.4-.5.6-.7a3.49,3.49,0,0,1,.9-.6,4.24,4.24,0,0,1-1.8-1.7,4.9,4.9,0,0,1-.7-2.5,4.21,4.21,0,0,1,.4-2,6.1,6.1,0,0,1,1.2-1.6,4.89,4.89,0,0,1,1.9-1,8.75,8.75,0,0,1,2.4-.3,7.12,7.12,0,0,1,3.4.8h4.4Zm-3,15.7a1.22,1.22,0,0,0-.3-.9,2.18,2.18,0,0,0-.8-.5c-.3-.1-.8-.2-1.2-.3a7.57,7.57,0,0,0-1.5-.1c-.5,0-1-.1-1.6-.1s-1.1-.1-1.5-.1a4.49,4.49,0,0,0-1.3,1,2.11,2.11,0,0,0-.5,1.3,2.92,2.92,0,0,0,.2.9,1.85,1.85,0,0,0,.8.7,3.92,3.92,0,0,0,1.3.5,9.12,9.12,0,0,0,3.8,0,4.57,4.57,0,0,0,1.4-.5,2.36,2.36,0,0,0,.9-.8,2.28,2.28,0,0,0,.3-1.1Zm-4.7-8.5a5.9,5.9,0,0,0,1.4-.2,2.07,2.07,0,0,0,1-.6,2.36,2.36,0,0,0,.6-.9,5,5,0,0,0,.2-1.2,2.86,2.86,0,0,0-.8-2.1,3.29,3.29,0,0,0-2.4-.8,3.65,3.65,0,0,0-2.4.8,2.86,2.86,0,0,0-.8,2.1,5,5,0,0,0,.2,1.2,1.46,1.46,0,0,0,.6.9,2.07,2.07,0,0,0,1,.6A5.9,5.9,0,0,0,36.6,163.8ZM49.5,159a7.56,7.56,0,0,1,1.8-2.4,3.66,3.66,0,0,1,2.5-.9,2.77,2.77,0,0,1,.9.1,6.89,6.89,0,0,1,.8.3l-.2,2.2c-.1.3-.2.4-.5.4a1.49,1.49,0,0,1-.6-.1,2.77,2.77,0,0,0-.9-.1,5.07,5.07,0,0,0-1.3.2,2.07,2.07,0,0,0-1,.6,8.74,8.74,0,0,0-.8,1c-.2.4-.4.8-.6,1.3v9.7h-3V155.9h1.7a1.45,1.45,0,0,1,.7.2,1.63,1.63,0,0,1,.3.6l.2,2.3Zm11.9-7.7a2.35,2.35,0,0,1-.2.8c-.1.2-.3.5-.4.7a1.61,1.61,0,0,1-.7.4,1.7,1.7,0,0,1-1.6,0,3.11,3.11,0,0,1-.6-.4,1.61,1.61,0,0,1-.4-.7,1.88,1.88,0,0,1-.2-.8,2.35,2.35,0,0,1,.2-.8c.1-.2.3-.5.4-.7a2.09,2.09,0,0,1,.6-.4,1.88,1.88,0,0,1,.8-.2,2.35,2.35,0,0,1,.8.2,4.35,4.35,0,0,1,.7.4,1.61,1.61,0,0,1,.4.7A2.35,2.35,0,0,1,61.4,151.3Zm-.6,4.8v15.4h-3V156.1ZM75.6,159l-.3.3c-.1.1-.2.1-.4.1s-.3-.1-.5-.2a4.35,4.35,0,0,0-.7-.4,10.37,10.37,0,0,0-1-.4,5.21,5.21,0,0,0-1.4-.2,4.1,4.1,0,0,0-3.3,1.5,4.94,4.94,0,0,0-.8,1.8,9.75,9.75,0,0,0,0,4.8,5.08,5.08,0,0,0,.9,1.8,3.81,3.81,0,0,0,1.4,1.1,4.78,4.78,0,0,0,1.8.4,7,7,0,0,0,1.6-.2,4.61,4.61,0,0,0,1-.5c.3-.2.5-.4.7-.5a.73.73,0,0,1,.6-.2.86.86,0,0,1,.6.3l.8,1.1a12,12,0,0,1-1.2,1.1,3.69,3.69,0,0,1-1.4.7,7.49,7.49,0,0,1-1.6.4,8.6,8.6,0,0,1-1.6.1,7.63,7.63,0,0,1-2.7-.5,8.55,8.55,0,0,1-2.2-1.5,6.77,6.77,0,0,1-1.4-2.5A9,9,0,0,1,64,164a11.27,11.27,0,0,1,.5-3.2,6.77,6.77,0,0,1,1.4-2.5,6.58,6.58,0,0,1,2.3-1.7,7.79,7.79,0,0,1,3.1-.6,8.36,8.36,0,0,1,2.9.5,8.55,8.55,0,0,1,2.2,1.5l-.8,1Zm16.3-2.9v15.4H90.1a.76.76,0,0,1-.8-.6l-.2-1.5a9.43,9.43,0,0,1-1,1c-.4.3-.8.5-1.2.8a6.94,6.94,0,0,1-1.3.5,7.72,7.72,0,0,1-1.5.2,5.09,5.09,0,0,1-2.2-.4,4.81,4.81,0,0,1-1.6-1.2,5.24,5.24,0,0,1-1-1.8,8.75,8.75,0,0,1-.3-2.4v-9.8h3v9.8a4,4,0,0,0,.8,2.6,2.87,2.87,0,0,0,2.3.9,4.65,4.65,0,0,0,2.1-.5,9,9,0,0,0,1.9-1.5V156.3h2.8Zm6.9-7v22.4h-3V149.1Zm8.8,22.6a4,4,0,0,1-2.9-1,4,4,0,0,1-1-3v-9.2h-1.8a.52.52,0,0,1-.4-.2.76.76,0,0,1-.2-.5v-1.2l2.5-.3.7-4.6a.52.52,0,0,1,.2-.4.6.6,0,0,1,.4-.1h1.5v5.2H111v2.2h-4.4v9a2,2,0,0,0,.4,1.4,1.5,1.5,0,0,0,1.1.4,1.48,1.48,0,0,0,.7-.1c.2-.1.4-.1.5-.2a.76.76,0,0,1,.4-.2.37.37,0,0,1,.3-.1c.1,0,.2,0,.2.1s.1.1.2.2l.9,1.4a5.85,5.85,0,0,1-1.7,1,12.31,12.31,0,0,1-2,.2Zm18.8-15.6v15.4h-1.8a.76.76,0,0,1-.8-.6l-.2-1.5a9.43,9.43,0,0,1-1,1c-.4.3-.8.5-1.2.8a3.49,3.49,0,0,1-1.3.5,7.72,7.72,0,0,1-1.5.2,5.09,5.09,0,0,1-2.2-.4,4.81,4.81,0,0,1-1.6-1.2,5.24,5.24,0,0,1-1-1.8,8.75,8.75,0,0,1-.3-2.4v-9.8h3v9.8a4,4,0,0,0,.8,2.6,2.87,2.87,0,0,0,2.3.9,4.65,4.65,0,0,0,2.1-.5,9,9,0,0,0,1.9-1.5V156.3h2.8Zm6.7,2.9a7.56,7.56,0,0,1,1.8-2.4,3.66,3.66,0,0,1,2.5-.9,2.48,2.48,0,0,1,.9.1,6.89,6.89,0,0,1,.8.3l-.2,2.2c-.1.3-.2.4-.5.4a1.49,1.49,0,0,1-.6-.1,2.77,2.77,0,0,0-.9-.1,5.07,5.07,0,0,0-1.3.2,2.07,2.07,0,0,0-1,.6,8.74,8.74,0,0,0-.8,1c-.2.4-.4.8-.6,1.3v9.7h-3V155.9h1.7a1.45,1.45,0,0,1,.7.2,1.63,1.63,0,0,1,.3.6l.2,2.3Zm8-.8a9.52,9.52,0,0,1,2.8-1.8,8.81,8.81,0,0,1,3.3-.6,5,5,0,0,1,4,1.6,5,5,0,0,1,1.1,1.9,8.6,8.6,0,0,1,.4,2.4v9.8h-1.3a1.48,1.48,0,0,1-.7-.1,1,1,0,0,1-.4-.5l-.3-1.4a10.59,10.59,0,0,1-1.2,1,7.46,7.46,0,0,1-1.2.7,6.47,6.47,0,0,1-1.3.4,7.77,7.77,0,0,1-1.6.2,8.81,8.81,0,0,1-1.7-.2,3.92,3.92,0,0,1-1.4-.8,3,3,0,0,1-.9-1.3,4.84,4.84,0,0,1-.3-1.8,4.07,4.07,0,0,1,.5-1.8,3.89,3.89,0,0,1,1.6-1.5,11.76,11.76,0,0,1,2.9-1.1,25.5,25.5,0,0,1,4.4-.5v-1.1a3.85,3.85,0,0,0-.7-2.6,2.66,2.66,0,0,0-2.2-.9,7,7,0,0,0-1.6.2,11.73,11.73,0,0,0-1.1.5,9.22,9.22,0,0,1-.8.5,1,1,0,0,1-.7.2.76.76,0,0,1-.5-.2c-.1-.1-.3-.2-.4-.4l-.7-.8Zm8.7,6.4a14.16,14.16,0,0,0-3.1.3,5.25,5.25,0,0,0-2,.6,2.1,2.1,0,0,0-1.4,2,3,3,0,0,0,.2,1,1.79,1.79,0,0,0,.5.7,2,2,0,0,0,.8.4,3.08,3.08,0,0,0,1,.1,5.28,5.28,0,0,0,1.3-.1,4.87,4.87,0,0,0,1.1-.4c.3-.2.7-.4,1-.6a6.47,6.47,0,0,0,.9-.8v-3.2Zm9.7-15.5v22.4h-3V149.1Zm31.3,22.4h-2.9a2,2,0,0,1-.8-.1,1.33,1.33,0,0,1-.6-.5l-2-2a10.32,10.32,0,0,1-3.3,2.1,10.57,10.57,0,0,1-4,.8,6.72,6.72,0,0,1-2.4-.4,7.19,7.19,0,0,1-2.1-1.2,7,7,0,0,1-1.5-1.9,5.54,5.54,0,0,1-.6-2.6,6.45,6.45,0,0,1,.3-2,5.85,5.85,0,0,1,1-1.7,6.73,6.73,0,0,1,1.5-1.4,11.78,11.78,0,0,1,1.9-1.1,8.94,8.94,0,0,1-1.3-2.3,5.87,5.87,0,0,1-.4-2.3,5,5,0,0,1,1.6-3.8,5.16,5.16,0,0,1,1.9-1.2,6.57,6.57,0,0,1,2.5-.4,5.09,5.09,0,0,1,2.2.4,5.45,5.45,0,0,1,1.7,1,3.27,3.27,0,0,1,1.1,1.5,6.07,6.07,0,0,1,.5,1.8l-1.9.4c-.4.1-.6-.1-.8-.5s-.2-.5-.3-.8a1.34,1.34,0,0,0-.6-.7,1.93,1.93,0,0,0-.9-.5,3.73,3.73,0,0,0-1.2-.2,5.07,5.07,0,0,0-1.3.2,3.59,3.59,0,0,0-1,.7,2.07,2.07,0,0,0-.6,1,5,5,0,0,0-.2,1.2,3.4,3.4,0,0,0,.1,1,6.89,6.89,0,0,0,.4,1,8.79,8.79,0,0,1,.6,1,10.63,10.63,0,0,1,.9,1.1l6.1,6.3a9.49,9.49,0,0,0,.9-2.1,8.51,8.51,0,0,0,.4-2.2.68.68,0,0,1,.7-.7h1.8a10.3,10.3,0,0,1-.6,3.5,18.67,18.67,0,0,1-1.5,3.2l4.7,4.4Zm-14.2-10.6a6.15,6.15,0,0,0-2.2,2,4.51,4.51,0,0,0-.7,2.5,4.67,4.67,0,0,0,.3,1.7,2.73,2.73,0,0,0,.9,1.2,5.67,5.67,0,0,0,1.3.8,4,4,0,0,0,1.5.3,6.84,6.84,0,0,0,2.9-.6,9.13,9.13,0,0,0,2.3-1.5Zm37.3,7.9v2.7H201.4V149.7h3.2v19.1Zm6-17.5a2.35,2.35,0,0,1-.2.8c-.1.2-.3.5-.4.7a1.61,1.61,0,0,1-.7.4,1.7,1.7,0,0,1-1.6,0,3.11,3.11,0,0,1-.6-.4,1.61,1.61,0,0,1-.4-.7,1.88,1.88,0,0,1-.2-.8,2.35,2.35,0,0,1,.2-.8c.1-.2.3-.5.4-.7a2.09,2.09,0,0,1,.6-.4,1.88,1.88,0,0,1,.8-.2,2.35,2.35,0,0,1,.8.2,4.35,4.35,0,0,1,.7.4,1.61,1.61,0,0,1,.4.7A2.35,2.35,0,0,1,219.9,151.3Zm-.6,4.8v15.4h-3V156.1Zm4.9,15.4v-13l-1.6-.2c-.2-.1-.4-.1-.6-.3a.76.76,0,0,1-.2-.5v-1.2h2.4v-1.4a6.05,6.05,0,0,1,.4-2.4,5.44,5.44,0,0,1,1.1-1.8,5,5,0,0,1,1.7-1.1,7.8,7.8,0,0,1,2.2-.4,5.82,5.82,0,0,1,1.9.3l-.1,1.5c0,.1-.1.2-.1.3s-.2.1-.3.1a.6.6,0,0,0-.4.1h-.5a3.73,3.73,0,0,0-1.2.2,2.66,2.66,0,0,0-1,.6,2.07,2.07,0,0,0-.6,1,7,7,0,0,0-.2,1.6v1.3h4.3v2.2h-4.2v13h-3Zm22.1-2.2a6.89,6.89,0,0,1-1.3,1.1,10.93,10.93,0,0,1-1.5.8,8.47,8.47,0,0,1-1.7.4,9.7,9.7,0,0,1-1.7.1,9.93,9.93,0,0,1-3-.5,7.76,7.76,0,0,1-2.4-1.6,6.14,6.14,0,0,1-1.5-2.6,9.89,9.89,0,0,1-.1-6.5,7.22,7.22,0,0,1,1.4-2.4,6.34,6.34,0,0,1,2.3-1.6,7.31,7.31,0,0,1,3-.6,7.51,7.51,0,0,1,2.6.5,7.43,7.43,0,0,1,2.1,1.3,6.92,6.92,0,0,1,1.4,2.2,8.81,8.81,0,0,1,.5,2.9,1.44,1.44,0,0,1-.2.9c-.1.2-.3.2-.6.2H235.5a8.6,8.6,0,0,0,.4,2.4,4,4,0,0,0,1,1.7,3.07,3.07,0,0,0,1.5,1,5.82,5.82,0,0,0,1.9.3,7.93,7.93,0,0,0,1.7-.2,3.34,3.34,0,0,0,1.2-.5c.3-.2.6-.3.9-.5a.73.73,0,0,1,.6-.2.86.86,0,0,1,.6.3l1,1.1Zm-2.5-7.2a4.15,4.15,0,0,0-.3-1.6,5.39,5.39,0,0,0-.7-1.3,3.78,3.78,0,0,0-1.2-.9,4.15,4.15,0,0,0-1.6-.3,4,4,0,0,0-2.9,1.1,5.27,5.27,0,0,0-1.4,3Zm25.4-8.9a1.38,1.38,0,0,1-.3.4.6.6,0,0,1-.4.1.86.86,0,0,1-.6-.3,3.49,3.49,0,0,0-.9-.6,8.1,8.1,0,0,0-1.3-.6,5,5,0,0,0-3.4,0,3.46,3.46,0,0,0-1.2.7,2.29,2.29,0,0,0-.7,1,2.77,2.77,0,0,0-.3,1.3,2.41,2.41,0,0,0,.4,1.5,4,4,0,0,0,1.2,1,6.69,6.69,0,0,0,1.7.7c.6.2,1.2.4,1.9.6a15.39,15.39,0,0,1,1.9.8,6.19,6.19,0,0,1,1.7,1.1,4.81,4.81,0,0,1,1.2,1.6,5.27,5.27,0,0,1,.4,2.3,7.63,7.63,0,0,1-.5,2.7,6.36,6.36,0,0,1-1.4,2.2,7.63,7.63,0,0,1-2.3,1.5,7.77,7.77,0,0,1-3.1.5,12.31,12.31,0,0,1-2-.2,6,6,0,0,1-1.9-.6,5.07,5.07,0,0,1-1.6-.9,5.26,5.26,0,0,1-1.4-1.2l.9-1.5.3-.3a.6.6,0,0,1,.4-.1,1.08,1.08,0,0,1,.7.3,4.31,4.31,0,0,0,1,.7,5.23,5.23,0,0,0,1.5.7,6.65,6.65,0,0,0,2.1.3,4.84,4.84,0,0,0,1.8-.3,2.87,2.87,0,0,0,1.3-.8,2.55,2.55,0,0,0,.8-1.2,4,4,0,0,0,.3-1.5,2.73,2.73,0,0,0-.4-1.6,4,4,0,0,0-1.2-1,6.69,6.69,0,0,0-1.7-.7c-.6-.2-1.2-.4-1.9-.6a14.58,14.58,0,0,1-1.9-.7,6.19,6.19,0,0,1-1.7-1.1,4.34,4.34,0,0,1-1.2-1.7,6.25,6.25,0,0,1-.4-2.5,6.35,6.35,0,0,1,.5-2.3,5,5,0,0,1,1.3-1.9,7.71,7.71,0,0,1,2.1-1.4,8.81,8.81,0,0,1,2.9-.5,9.74,9.74,0,0,1,3.4.6,7.71,7.71,0,0,1,2.7,1.7l-.7,1.8Zm15.4,5.8-.3.3c-.1.1-.2.1-.4.1s-.3-.1-.5-.2a4.35,4.35,0,0,0-.7-.4,10.37,10.37,0,0,0-1-.4,5.21,5.21,0,0,0-1.4-.2,4.1,4.1,0,0,0-3.3,1.5,4.94,4.94,0,0,0-.8,1.8,9.75,9.75,0,0,0,0,4.8,5.08,5.08,0,0,0,.9,1.8,3.81,3.81,0,0,0,1.4,1.1,4.78,4.78,0,0,0,1.8.4,7,7,0,0,0,1.6-.2,4.61,4.61,0,0,0,1-.5c.3-.2.5-.4.7-.5a.73.73,0,0,1,.6-.2.86.86,0,0,1,.6.3l.8,1.1a12,12,0,0,1-1.2,1.1,3.69,3.69,0,0,1-1.4.7,7.49,7.49,0,0,1-1.6.4,8.6,8.6,0,0,1-1.6.1,7.63,7.63,0,0,1-2.7-.5,8.55,8.55,0,0,1-2.2-1.5,6.77,6.77,0,0,1-1.4-2.5,11.59,11.59,0,0,1-.5-3.4,11.27,11.27,0,0,1,.5-3.2,6.77,6.77,0,0,1,1.4-2.5,6.58,6.58,0,0,1,2.3-1.7,7.79,7.79,0,0,1,3.1-.6,8.36,8.36,0,0,1,2.9.5,8.55,8.55,0,0,1,2.2,1.5l-.8,1Zm7-7.7a2.35,2.35,0,0,1-.2.8c-.1.2-.3.5-.4.7a1.61,1.61,0,0,1-.7.4,1.7,1.7,0,0,1-1.6,0,3.11,3.11,0,0,1-.6-.4,1.61,1.61,0,0,1-.4-.7,1.88,1.88,0,0,1-.2-.8,2.35,2.35,0,0,1,.2-.8c.1-.2.3-.5.4-.7a2.09,2.09,0,0,1,.6-.4,1.88,1.88,0,0,1,.8-.2,2.35,2.35,0,0,1,.8.2,4.35,4.35,0,0,1,.7.4,1.61,1.61,0,0,1,.4.7A2.35,2.35,0,0,1,291.6,151.3Zm-.6,4.8v15.4h-3V156.1Zm16.7,13.2a6.89,6.89,0,0,1-1.3,1.1,10.93,10.93,0,0,1-1.5.8,8.47,8.47,0,0,1-1.7.4,9.7,9.7,0,0,1-1.7.1,9.93,9.93,0,0,1-3-.5,7.76,7.76,0,0,1-2.4-1.6,6.14,6.14,0,0,1-1.5-2.6,9.89,9.89,0,0,1-.1-6.5,7.22,7.22,0,0,1,1.4-2.4,6.34,6.34,0,0,1,2.3-1.6,7.31,7.31,0,0,1,3-.6,7.51,7.51,0,0,1,2.6.5,7.43,7.43,0,0,1,2.1,1.3,6.92,6.92,0,0,1,1.4,2.2,8.81,8.81,0,0,1,.5,2.9,1.44,1.44,0,0,1-.2.9c-.1.2-.3.2-.6.2H296.9a8.6,8.6,0,0,0,.4,2.4,4,4,0,0,0,1,1.7,3.07,3.07,0,0,0,1.5,1,5.82,5.82,0,0,0,1.9.3,7.93,7.93,0,0,0,1.7-.2,3.34,3.34,0,0,0,1.2-.5c.3-.2.6-.3.9-.5a.73.73,0,0,1,.6-.2.86.86,0,0,1,.6.3l1,1.1Zm-2.4-7.2a4.15,4.15,0,0,0-.3-1.6,5.39,5.39,0,0,0-.7-1.3,3.78,3.78,0,0,0-1.2-.9,4.15,4.15,0,0,0-1.6-.3,4,4,0,0,0-2.9,1.1,5.27,5.27,0,0,0-1.4,3Zm8.5-3.9a9.43,9.43,0,0,1,1-1c.4-.3.8-.5,1.2-.8a5,5,0,0,1,1.3-.5,7.72,7.72,0,0,1,1.5-.2,5.09,5.09,0,0,1,2.2.4,4.81,4.81,0,0,1,1.6,1.2,5.24,5.24,0,0,1,1,1.8,8.75,8.75,0,0,1,.3,2.4v9.8h-3v-9.8a4,4,0,0,0-.8-2.6,2.87,2.87,0,0,0-2.3-.9,4.65,4.65,0,0,0-2.1.5,5.17,5.17,0,0,0-1.8,1.5v11.3h-3V155.9h1.8a.76.76,0,0,1,.8.6Zm24.9.8-.3.3c-.1.1-.2.1-.4.1s-.3-.1-.5-.2a4.35,4.35,0,0,0-.7-.4,10.37,10.37,0,0,0-1-.4,5.21,5.21,0,0,0-1.4-.2,4.1,4.1,0,0,0-3.3,1.5,4.94,4.94,0,0,0-.8,1.8,9.75,9.75,0,0,0,0,4.8,5.08,5.08,0,0,0,.9,1.8,3.81,3.81,0,0,0,1.4,1.1,4.78,4.78,0,0,0,1.8.4,7,7,0,0,0,1.6-.2,4.61,4.61,0,0,0,1-.5c.3-.2.5-.4.7-.5a.73.73,0,0,1,.6-.2.86.86,0,0,1,.6.3l.8,1.1a12,12,0,0,1-1.2,1.1,3.69,3.69,0,0,1-1.4.7,7.49,7.49,0,0,1-1.6.4,8.6,8.6,0,0,1-1.6.1,7.63,7.63,0,0,1-2.7-.5,8.55,8.55,0,0,1-2.2-1.5,6.77,6.77,0,0,1-1.4-2.5,11.59,11.59,0,0,1-.5-3.4,11.27,11.27,0,0,1,.5-3.2,6.77,6.77,0,0,1,1.4-2.5,6.58,6.58,0,0,1,2.3-1.7,7.79,7.79,0,0,1,3.1-.6,8.36,8.36,0,0,1,2.9.5,8.55,8.55,0,0,1,2.2,1.5l-.8,1Zm15.8,10.3a6.89,6.89,0,0,1-1.3,1.1,10.93,10.93,0,0,1-1.5.8,8.47,8.47,0,0,1-1.7.4,9.7,9.7,0,0,1-1.7.1,9.93,9.93,0,0,1-3-.5,7.76,7.76,0,0,1-2.4-1.6,6.14,6.14,0,0,1-1.5-2.6,9.89,9.89,0,0,1-.1-6.5,7.22,7.22,0,0,1,1.4-2.4,6.34,6.34,0,0,1,2.3-1.6,7.31,7.31,0,0,1,3-.6,7.51,7.51,0,0,1,2.6.5,7.43,7.43,0,0,1,2.1,1.3,6.92,6.92,0,0,1,1.4,2.2,8.81,8.81,0,0,1,.5,2.9,1.44,1.44,0,0,1-.2.9c-.1.2-.3.2-.6.2H343.7a8.6,8.6,0,0,0,.4,2.4,4,4,0,0,0,1,1.7,3.07,3.07,0,0,0,1.5,1,5.82,5.82,0,0,0,1.9.3,7.93,7.93,0,0,0,1.7-.2,7.26,7.26,0,0,0,1.2-.5c.3-.2.6-.3.9-.5a.73.73,0,0,1,.6-.2.86.86,0,0,1,.6.3l1,1.1Zm-2.4-7.2a4.15,4.15,0,0,0-.3-1.6,5.39,5.39,0,0,0-.7-1.3,3.78,3.78,0,0,0-1.2-.9,4.15,4.15,0,0,0-1.6-.3,4,4,0,0,0-2.9,1.1,5.27,5.27,0,0,0-1.4,3Zm14.8-3.4-.3.3a.37.37,0,0,1-.3.1c-.2,0-.3-.1-.5-.2a5.74,5.74,0,0,1-.7-.4,10.37,10.37,0,0,0-1-.4,4,4,0,0,0-2.5,0c-.3.1-.6.3-.9.4a4.35,4.35,0,0,0-.6.7,2.35,2.35,0,0,0-.2.8,1.69,1.69,0,0,0,.3,1,2.18,2.18,0,0,0,.9.7c.4.2.8.3,1.3.5s1,.3,1.4.5a5.91,5.91,0,0,1,1.4.6c.4.3.9.5,1.3.8a3.13,3.13,0,0,1,.9,1.1,3.81,3.81,0,0,1,.3,1.6,4.48,4.48,0,0,1-.4,2,5.72,5.72,0,0,1-1.1,1.6,4.89,4.89,0,0,1-1.9,1,6.57,6.57,0,0,1-2.5.4,8.81,8.81,0,0,1-2.9-.5,9.92,9.92,0,0,1-2.3-1.3l.7-1.1c.1-.1.2-.3.3-.3a.75.75,0,0,1,.5-.1,1.42,1.42,0,0,1,.6.2c.2.1.4.3.7.5a9.29,9.29,0,0,0,1,.5,6.05,6.05,0,0,0,1.5.2,5.07,5.07,0,0,0,1.3-.2,1.93,1.93,0,0,0,.9-.5,5.55,5.55,0,0,0,.6-.8,2.92,2.92,0,0,0,.2-.9,1.69,1.69,0,0,0-.3-1,2.18,2.18,0,0,0-.9-.7,5,5,0,0,0-1.3-.5,8.8,8.8,0,0,1-1.5-.5,9.38,9.38,0,0,1-1.5-.6,5.67,5.67,0,0,1-1.3-.8,2.73,2.73,0,0,1-.9-1.2,4.31,4.31,0,0,1-.3-1.7,3.29,3.29,0,0,1,.4-1.7,3.6,3.6,0,0,1,1.1-1.4,9.5,9.5,0,0,1,1.7-1,7.76,7.76,0,0,1,5.2.1,7.43,7.43,0,0,1,2.1,1.3l-.5.9Z" transform="translate(-7.8 -8.8)"/><path class="cls-1" d="M44.7,192.5a5,5,0,0,0,1.2-.2,2,2,0,0,0,.9-.6,8.79,8.79,0,0,0,.6-1,5.07,5.07,0,0,0,.2-1.3v-7h1.9v7a5.82,5.82,0,0,1-.3,1.9,3.77,3.77,0,0,1-.9,1.5,4,4,0,0,1-1.5,1,5.92,5.92,0,0,1-2,.4,4.48,4.48,0,0,1-2-.4,4,4,0,0,1-1.5-1,3.77,3.77,0,0,1-.9-1.5,5.82,5.82,0,0,1-.3-1.9v-7H42v7a5.07,5.07,0,0,0,.2,1.3,2.07,2.07,0,0,0,.6,1,1.46,1.46,0,0,0,.9.6A1.85,1.85,0,0,0,44.7,192.5Zm16.9-10.1V194h-1a.6.6,0,0,1-.4-.1c-.1-.1-.2-.1-.3-.3l-6.4-8.2v8.5H52V182.3h1.4l.1.1a.35.35,0,0,1,.1.2l6.4,8.2v-8.6h1.6ZM66.3,194H64.4V182.4h1.9Zm12.5-11.6L74.1,194H72.4l-4.7-11.6h1.5c.2,0,.3,0,.4.1s.2.2.2.3l3,7.6a5.41,5.41,0,0,1,.4,1.5c.1-.3.1-.5.2-.8s.1-.5.2-.7l3-7.6c0-.1.1-.2.2-.3s.2-.1.4-.1Zm8.7,10.1V194H80.3V182.4h7.2v1.5H82.2v3.5h4.3v1.5H82.2v3.6ZM98.2,194H96.5a.67.67,0,0,1-.7-.4l-2.7-3.9-.3-.3a.75.75,0,0,0-.5-.1h-1V194H89.4V182.4h3.4a11.24,11.24,0,0,1,2,.2,4.58,4.58,0,0,1,1.4.7,2.54,2.54,0,0,1,.8,1,3.08,3.08,0,0,1,.3,1.3,3.59,3.59,0,0,1-.2,1.1,4.67,4.67,0,0,1-.5,1,2.7,2.7,0,0,1-.8.7,3.7,3.7,0,0,1-1.1.5,1.7,1.7,0,0,1,.6.6l2.9,4.5Zm-5.4-6a3.59,3.59,0,0,0,1.1-.2,5.94,5.94,0,0,0,.8-.4,1.79,1.79,0,0,0,.5-.7,2.92,2.92,0,0,0,.2-.9,2,2,0,0,0-.6-1.5,3.31,3.31,0,0,0-1.9-.5H91.4v4.1h1.4Zm13-3.6c-.1.1-.1.2-.2.2s-.1.1-.2.1a.37.37,0,0,1-.3-.1,2.19,2.19,0,0,0-.5-.3,4.88,4.88,0,0,0-.7-.3,4.1,4.1,0,0,0-1.8,0l-.6.3a1,1,0,0,0-.4.5,1.27,1.27,0,0,0-.1.6,1.45,1.45,0,0,0,.2.7,2.65,2.65,0,0,0,.6.5,7.93,7.93,0,0,0,.9.4c.3.1.7.2,1,.3s.7.3,1,.4a4.7,4.7,0,0,1,.9.6,1.56,1.56,0,0,1,.6.8,2.17,2.17,0,0,1,.2,1.2,4,4,0,0,1-.3,1.5,3.17,3.17,0,0,1-.8,1.2,3.6,3.6,0,0,1-1.2.8,4.67,4.67,0,0,1-1.7.3,4.1,4.1,0,0,1-1.1-.1c-.4-.1-.7-.2-1-.3a4.05,4.05,0,0,1-.9-.5,4.35,4.35,0,0,1-.7-.6l.5-.9c0-.1.1-.1.2-.2s.2-.1.3-.1a.76.76,0,0,1,.4.2c.1.1.3.2.5.4a5.94,5.94,0,0,0,.8.4,3.59,3.59,0,0,0,1.1.2,2.54,2.54,0,0,0,1.6-.5,1.68,1.68,0,0,0,.6-1.4,1.88,1.88,0,0,0-.2-.8,2.65,2.65,0,0,0-.6-.5,7.93,7.93,0,0,0-.9-.4c-.3-.1-.7-.2-1-.3a4.18,4.18,0,0,1-1-.4,2.36,2.36,0,0,1-.9-.6,1.46,1.46,0,0,1-.6-.9,2.74,2.74,0,0,1-.2-1.3,5,5,0,0,1,.2-1.2,3.59,3.59,0,0,1,.7-1,3.46,3.46,0,0,1,1.2-.7,4.15,4.15,0,0,1,1.6-.3,4.84,4.84,0,0,1,1.8.3,3.39,3.39,0,0,1,1.4.9l-.4.9Zm4.7,9.6h-1.9V182.4h1.9Zm10.7-10h-3.6v10h-1.9V184h-3.6v-1.6h9.1Zm7,5.5V194h-1.9v-4.5l-4.2-7.1h1.7c.2,0,.3,0,.4.1s.2.2.2.3l2.4,4.2.3.6a1.42,1.42,0,0,1,.2.6c.1-.2.1-.4.2-.6l.3-.6,2.4-4.2c.1-.1.1-.2.2-.3s.2-.1.4-.1h1.7l-4.3,7.1Zm20.6-1.3a6.05,6.05,0,0,1-.4,2.4,7.61,7.61,0,0,1-1.2,1.9,5.67,5.67,0,0,1-1.8,1.2,7.4,7.4,0,0,1-4.8,0,5.67,5.67,0,0,1-1.8-1.2,5.16,5.16,0,0,1-1.2-1.9,7.4,7.4,0,0,1,0-4.8,6.15,6.15,0,0,1,1.2-1.9,5.67,5.67,0,0,1,1.8-1.2,7.4,7.4,0,0,1,4.8,0,5.67,5.67,0,0,1,1.8,1.2,6.15,6.15,0,0,1,1.2,1.9A6.72,6.72,0,0,1,148.8,188.2Zm-1.9,0a4.84,4.84,0,0,0-.3-1.8,3.92,3.92,0,0,0-.8-1.4,2.73,2.73,0,0,0-1.2-.9,4.42,4.42,0,0,0-3.2,0,2.73,2.73,0,0,0-1.2.9,4.68,4.68,0,0,0-.8,1.4,5.55,5.55,0,0,0,0,3.6,2.87,2.87,0,0,0,.8,1.3,2,2,0,0,0,1.2.8,4.42,4.42,0,0,0,3.2,0,3.6,3.6,0,0,0,1.2-.8,5.67,5.67,0,0,0,.8-1.3A4.84,4.84,0,0,0,146.9,188.2Zm5.9-4.3v3.7h4.5v1.5h-4.5v4.8h-1.9V182.3h7.2v1.5h-5.3Zm26.7-1.5L175.9,194h-1.7l-2.7-8.3c0-.1-.1-.2-.1-.3s-.1-.2-.1-.3c0,.1-.1.2-.1.3s-.1.2-.1.3l-2.7,8.3h-1.7l-3.6-11.6h1.6c.2,0,.3,0,.4.1s.2.2.2.3l2.2,7.4c0,.2.1.3.1.5s.1.4.1.6c0-.2.1-.4.1-.6a4.33,4.33,0,0,1,.1-.5l2.5-7.4c0-.1.1-.2.2-.3s.2-.1.4-.1h.5c.2,0,.3,0,.4.1s.2.2.2.3l2.5,7.4a.9.9,0,0,1,.1.5c0,.2.1.4.1.6,0-.2.1-.4.1-.6s.1-.3.1-.5l2.2-7.4c0-.1.1-.2.2-.3a.6.6,0,0,1,.4-.1Zm3.4,11.6H181V182.4h1.9Zm8.8-9.6c-.1.1-.1.2-.2.2s-.1.1-.2.1a.37.37,0,0,1-.3-.1,2.19,2.19,0,0,0-.5-.3,4.88,4.88,0,0,0-.7-.3,2.77,2.77,0,0,0-.9-.1,2,2,0,0,0-.8.1,3.33,3.33,0,0,0-.6.3,1,1,0,0,0-.4.5,1.27,1.27,0,0,0-.1.6,1.45,1.45,0,0,0,.2.7,2.65,2.65,0,0,0,.6.5,7.93,7.93,0,0,0,.9.4c.3.1.7.2,1,.3s.7.3,1,.4a4.7,4.7,0,0,1,.9.6,1.56,1.56,0,0,1,.6.8,2.17,2.17,0,0,1,.2,1.2,4,4,0,0,1-.3,1.5,3.17,3.17,0,0,1-.8,1.2,3.6,3.6,0,0,1-1.2.8,4.67,4.67,0,0,1-1.7.3,4.1,4.1,0,0,1-1.1-.1c-.4-.1-.7-.2-1-.3a4.05,4.05,0,0,1-.9-.5,4.35,4.35,0,0,1-.7-.6l.5-.9c0-.1.1-.1.2-.2a.35.35,0,0,0,.2-.1.76.76,0,0,1,.4.2,1.76,1.76,0,0,1,.5.4,5.94,5.94,0,0,0,.8.4,3.59,3.59,0,0,0,1.1.2,2.54,2.54,0,0,0,1.6-.5,1.68,1.68,0,0,0,.6-1.4,1.88,1.88,0,0,0-.2-.8,1.47,1.47,0,0,0-.6-.5,7.93,7.93,0,0,0-.9-.4c-.3-.1-.7-.2-1-.3a4.18,4.18,0,0,1-1-.4,2.36,2.36,0,0,1-.9-.6,1.46,1.46,0,0,1-.6-.9,2.74,2.74,0,0,1-.2-1.3,5,5,0,0,1,.2-1.2,3.59,3.59,0,0,1,.7-1,3.46,3.46,0,0,1,1.2-.7,4.15,4.15,0,0,1,1.6-.3,4.84,4.84,0,0,1,1.8.3,3.39,3.39,0,0,1,1.4.9l-.4.9Zm10.9,7a.37.37,0,0,1,.3.1l.8.8a5.15,5.15,0,0,1-1.7,1.3,6.18,6.18,0,0,1-2.5.5,5.87,5.87,0,0,1-2.3-.4,5.67,5.67,0,0,1-1.8-1.2,4,4,0,0,1-1.1-1.9,7.4,7.4,0,0,1,0-4.8,6.15,6.15,0,0,1,1.2-1.9,5.67,5.67,0,0,1,1.8-1.2,5.87,5.87,0,0,1,2.3-.4,5.09,5.09,0,0,1,2.2.4,6.19,6.19,0,0,1,1.7,1.1l-.6.9c0,.1-.1.1-.2.2s-.1.1-.2.1a.76.76,0,0,1-.4-.1,2.19,2.19,0,0,0-.5-.3,6.89,6.89,0,0,0-.8-.3,4.12,4.12,0,0,0-1.2-.1,3.34,3.34,0,0,0-1.5.3,3.6,3.6,0,0,0-1.2.8,4.68,4.68,0,0,0-.8,1.4,5.55,5.55,0,0,0,0,3.6,6.38,6.38,0,0,0,.8,1.4,2.55,2.55,0,0,0,1.2.8,3.65,3.65,0,0,0,1.5.3,2.77,2.77,0,0,0,.9-.1,1.45,1.45,0,0,0,.7-.2l.6-.3c.2-.1.4-.3.6-.4-.1-.3,0-.4.2-.4Zm13.2-3.2a6.05,6.05,0,0,1-.4,2.4,7.61,7.61,0,0,1-1.2,1.9,5.67,5.67,0,0,1-1.8,1.2,7.4,7.4,0,0,1-4.8,0,5.67,5.67,0,0,1-1.8-1.2,5.16,5.16,0,0,1-1.2-1.9,7.4,7.4,0,0,1,0-4.8,6.15,6.15,0,0,1,1.2-1.9,5.67,5.67,0,0,1,1.8-1.2,7.4,7.4,0,0,1,4.8,0,5.67,5.67,0,0,1,1.8,1.2,6.15,6.15,0,0,1,1.2,1.9A6.72,6.72,0,0,1,215.8,188.2Zm-1.9,0a4.84,4.84,0,0,0-.3-1.8,3.92,3.92,0,0,0-.8-1.4,2.73,2.73,0,0,0-1.2-.9,4.42,4.42,0,0,0-3.2,0,2.73,2.73,0,0,0-1.2.9,4.68,4.68,0,0,0-.8,1.4,5.55,5.55,0,0,0,0,3.6,2.87,2.87,0,0,0,.8,1.3,2,2,0,0,0,1.2.8,4.42,4.42,0,0,0,3.2,0,3.6,3.6,0,0,0,1.2-.8,5.67,5.67,0,0,0,.8-1.3A4.84,4.84,0,0,0,213.9,188.2Zm13.6-5.8V194h-1a.6.6,0,0,1-.4-.1c-.1-.1-.2-.1-.3-.3l-6.4-8.2v8.5h-1.7V182.3h1.4l.1.1a.35.35,0,0,1,.1.2l6.4,8.2v-8.6h1.8Zm8.8,2c-.1.1-.1.2-.2.2s-.1.1-.2.1a.37.37,0,0,1-.3-.1,2.19,2.19,0,0,0-.5-.3,4.88,4.88,0,0,0-.7-.3,2.77,2.77,0,0,0-.9-.1,2,2,0,0,0-.8.1,3.33,3.33,0,0,0-.6.3,1,1,0,0,0-.4.5,1.27,1.27,0,0,0-.1.6,1.45,1.45,0,0,0,.2.7,2.65,2.65,0,0,0,.6.5,7.93,7.93,0,0,0,.9.4c.3.1.7.2,1,.3s.7.3,1,.4a4.7,4.7,0,0,1,.9.6,1.56,1.56,0,0,1,.6.8,2.17,2.17,0,0,1,.2,1.2,4,4,0,0,1-.3,1.5,3.68,3.68,0,0,1-2,2,4.67,4.67,0,0,1-1.7.3,4.1,4.1,0,0,1-1.1-.1c-.4-.1-.7-.2-1-.3a4.05,4.05,0,0,1-.9-.5,4.35,4.35,0,0,1-.7-.6l.5-.9c0-.1.1-.1.2-.2a.35.35,0,0,0,.2-.1.76.76,0,0,1,.4.2,1.76,1.76,0,0,1,.5.4,5.94,5.94,0,0,0,.8.4,3.59,3.59,0,0,0,1.1.2,2.54,2.54,0,0,0,1.6-.5,1.68,1.68,0,0,0,.6-1.4,1.88,1.88,0,0,0-.2-.8,1.47,1.47,0,0,0-.6-.5,7.93,7.93,0,0,0-.9-.4c-.3-.1-.7-.2-1-.3a4.18,4.18,0,0,1-1-.4,2.36,2.36,0,0,1-.9-.6,1.46,1.46,0,0,1-.6-.9,2.74,2.74,0,0,1-.2-1.3,5,5,0,0,1,.2-1.2,3.59,3.59,0,0,1,.7-1,3.46,3.46,0,0,1,1.2-.7,4.15,4.15,0,0,1,1.6-.3,4.84,4.84,0,0,1,1.8.3,3.39,3.39,0,0,1,1.4.9l-.4.9ZM241,194h-1.9V182.4H241Zm12.3-11.6V194h-1a.6.6,0,0,1-.4-.1c-.1-.1-.2-.1-.3-.3l-6.4-8.2v8.5h-1.7V182.3h1.4l.1.1a.35.35,0,0,1,.1.2l6.4,8.2v-8.6h1.8Zm2.6,5.5h6.5v1.2h-6.5Zm21.4-5.5V194h-1.7v-8.9l-3.7,6.9a.67.67,0,0,1-.7.4H271a.75.75,0,0,1-.7-.4l-3.8-6.9V194h-1.7V182.4h1.8c.1,0,.2.1.2.3l3.7,6.7c.1.2.2.3.2.5s.1.3.2.5c.1-.2.1-.3.2-.5s.1-.3.2-.5l3.7-6.7c.1-.2.2-.2.2-.3ZM289.8,194h-1.5c-.2,0-.3,0-.4-.1s-.2-.2-.2-.3l-1-2.6h-5l-1,2.6c0,.1-.1.2-.2.3s-.2.1-.4.1h-1.5l4.6-11.6h1.9Zm-3.6-4.3-1.6-4.2a8.34,8.34,0,0,1-.4-1.2,6.37,6.37,0,0,1-.2.7c-.1.2-.1.4-.2.6l-1.6,4.2h4Zm15.2-1.5a6.37,6.37,0,0,1-.4,2.4,5.52,5.52,0,0,1-3,3,6.05,6.05,0,0,1-2.4.4h-4.4V182.4h4.4a6.05,6.05,0,0,1,2.4.4,5.52,5.52,0,0,1,3,3,6.72,6.72,0,0,1,.4,2.4Zm-1.9,0a4.84,4.84,0,0,0-.3-1.8,2.87,2.87,0,0,0-.8-1.3,2.55,2.55,0,0,0-1.2-.8,4.15,4.15,0,0,0-1.6-.3h-2.5v8.6h2.5a4.15,4.15,0,0,0,1.6-.3,3.6,3.6,0,0,0,1.2-.8,5.67,5.67,0,0,0,.8-1.3,6.93,6.93,0,0,0,.3-2Zm5.9,5.8h-1.9V182.4h1.9Zm8.9-9.6c-.1.1-.1.2-.2.2s-.1.1-.2.1a.37.37,0,0,1-.3-.1,2.19,2.19,0,0,0-.5-.3,4.88,4.88,0,0,0-.7-.3,2.77,2.77,0,0,0-.9-.1,2,2,0,0,0-.8.1,3.33,3.33,0,0,0-.6.3,1,1,0,0,0-.4.5,1.27,1.27,0,0,0-.1.6,1.45,1.45,0,0,0,.2.7,2.65,2.65,0,0,0,.6.5,7.93,7.93,0,0,0,.9.4c.3.1.7.2,1,.3s.7.3,1,.4a2.36,2.36,0,0,1,.9.6,1.56,1.56,0,0,1,.6.8,2.17,2.17,0,0,1,.2,1.2,4,4,0,0,1-.3,1.5,3.68,3.68,0,0,1-2,2,4.67,4.67,0,0,1-1.7.3,4.1,4.1,0,0,1-1.1-.1c-.4-.1-.7-.2-1-.3a4.05,4.05,0,0,1-.9-.5,4.35,4.35,0,0,1-.7-.6l.5-.9c0-.1.1-.1.2-.2a.35.35,0,0,0,.2-.1.76.76,0,0,1,.4.2,1.76,1.76,0,0,1,.5.4,5.94,5.94,0,0,0,.8.4,3.59,3.59,0,0,0,1.1.2,2.54,2.54,0,0,0,1.6-.5,1.68,1.68,0,0,0,.6-1.4,1.88,1.88,0,0,0-.2-.8,1.47,1.47,0,0,0-.6-.5,7.93,7.93,0,0,0-.9-.4c-.3-.1-.7-.2-1-.3a4.18,4.18,0,0,1-1-.4,2.36,2.36,0,0,1-.9-.6,1.8,1.8,0,0,1-.6-.9,2.74,2.74,0,0,1-.2-1.3,5,5,0,0,1,.2-1.2,3.59,3.59,0,0,1,.7-1,3.46,3.46,0,0,1,1.2-.7,4.15,4.15,0,0,1,1.6-.3,4.84,4.84,0,0,1,1.8.3,3.39,3.39,0,0,1,1.4.9l-.4.9Zm13.6,3.8a6.05,6.05,0,0,1-.4,2.4,7.61,7.61,0,0,1-1.2,1.9,5.67,5.67,0,0,1-1.8,1.2,7.4,7.4,0,0,1-4.8,0,5.67,5.67,0,0,1-1.8-1.2,5.16,5.16,0,0,1-1.2-1.9,7.4,7.4,0,0,1,0-4.8,6.15,6.15,0,0,1,1.2-1.9,5.67,5.67,0,0,1,1.8-1.2,7.4,7.4,0,0,1,4.8,0,5.67,5.67,0,0,1,1.8,1.2,6.15,6.15,0,0,1,1.2,1.9A6.72,6.72,0,0,1,327.9,188.2Zm-1.9,0a4.84,4.84,0,0,0-.3-1.8,3.92,3.92,0,0,0-.8-1.4,2.73,2.73,0,0,0-1.2-.9,4.42,4.42,0,0,0-3.2,0,2.73,2.73,0,0,0-1.2.9,4.68,4.68,0,0,0-.8,1.4,5.55,5.55,0,0,0,0,3.6,2.87,2.87,0,0,0,.8,1.3,2,2,0,0,0,1.2.8,4.42,4.42,0,0,0,3.2,0,3.6,3.6,0,0,0,1.2-.8,5.67,5.67,0,0,0,.8-1.3A4.84,4.84,0,0,0,326,188.2Zm13.6-5.8V194h-1a.6.6,0,0,1-.4-.1c-.1-.1-.2-.1-.3-.3l-6.4-8.2v8.5H330V182.3h1.4l.1.1a.35.35,0,0,1,.1.2l6.4,8.2v-8.6h1.6Z" transform="translate(-7.8 -8.8)"/></svg>